HIERARCHY
ROOT Hips
{
  OFFSET -33.9132 29.2015 117.021
  CHANNELS 6 Xposition Yposition Zposition Zrotation Xrotation Yrotation
  JOINT LeftUpLeg
  {
    OFFSET 8.64259 1.95398 -2.38835
    CHANNELS 3 Zrotation Xrotation Yrotation
    JOINT LeftLeg
    {
      OFFSET 43.7702 0 0
      CHANNELS 3 Zrotation Xrotation Yrotation
      JOINT LeftFoot
      {
        OFFSET 40.6238 0 0
        CHANNELS 3 Zrotation Xrotation Yrotation
        JOINT LeftToeBase
        {
          OFFSET 12.7242 0 0
          CHANNELS 3 Zrotation Xrotation Yrotation
          End Site
          {
            OFFSET 0 0 0
          }
        }
      }
    }
  }
  JOINT RightUpLeg
  {
    OFFSET -8.2249 1.95398 -2.59336
    CHANNELS 3 Zrotation Xrotation Yrotation
    JOINT RightLeg
    {
      OFFSET 43.5653 0 0
      CHANNELS 3 Zrotation Xrotation Yrotation
      JOINT RightFoot
      {
        OFFSET 40.6238 0 0
        CHANNELS 3 Zrotation Xrotation Yrotation
        JOINT RightToeBase
        {
          OFFSET 12.7242 0 0
          CHANNELS 3 Zrotation Xrotation Yrotation
          End Site
          {
            OFFSET 0 0 0
          }
        }
      }
    }
  }
  JOINT Spine
  {
    OFFSET 0.165834 0.87714 6.61349
    CHANNELS 3 Zrotation Xrotation Yrotation
    JOINT Spine1
    {
      OFFSET 7.38963 1.71661e-005 0
      CHANNELS 3 Zrotation Xrotation Yrotation
      JOINT Spine2
      {
        OFFSET 11.9445 1.14441e-005 0
        CHANNELS 3 Zrotation Xrotation Yrotation
        JOINT Spine3
        {
          OFFSET 14.7254 4.19617e-005 0
          CHANNELS 3 Zrotation Xrotation Yrotation
          JOINT Spine4
          {
            OFFSET 10.9679 0 0
            CHANNELS 3 Zrotation Xrotation Yrotation
            JOINT RightShoulder
            {
              OFFSET 2.46616 -1.6653 3.69651
              CHANNELS 3 Zrotation Xrotation Yrotation
              JOINT RightArm
              {
                OFFSET 13.0012 0 0
                CHANNELS 3 Zrotation Xrotation Yrotation
                JOINT RightForeArm
                {
                  OFFSET 28.7848 1.62311e-005 0
                  CHANNELS 3 Zrotation Xrotation Yrotation
                  JOINT RightHand
                  {
                    OFFSET 26.5688 1.62095e-005 0
                    CHANNELS 3 Zrotation Xrotation Yrotation
                    End Site
                    {
                      OFFSET 0 0 0
                    }
                  }
                }
              }
            }
            JOINT LeftShoulder
            {
              OFFSET 2.38034 -1.29275 -3.7523
              CHANNELS 3 Zrotation Xrotation Yrotation
              JOINT LeftArm
              {
                OFFSET 16.3182 6.07031e-005 0
                CHANNELS 3 Zrotation Xrotation Yrotation
                JOINT LeftForeArm
                {
                  OFFSET 27.0901 0 0
                  CHANNELS 3 Zrotation Xrotation Yrotation
                  JOINT LeftHand
                  {
                    OFFSET 24.5451 1.51738e-005 0
                    CHANNELS 3 Zrotation Xrotation Yrotation
                    End Site
                    {
                      OFFSET 0 0 0
                    }
                  }
                }
              }
            }
            JOINT Neck
            {
              OFFSET 5.0226 -0.0266342 0
              CHANNELS 3 Zrotation Xrotation Yrotation
              JOINT Head
              {
                OFFSET 6.69364 2.86102e-005 0
                CHANNELS 3 Zrotation Xrotation Yrotation
                End Site
                {
                  OFFSET 0 0 0
                }
              }
            }
          }
        }
      }
    }
  }
}
MOTION
Frames:	15
Frame Time:	0.0416667
27.7925 98.3684 -98.3269 -178.2 -81.1285 178.903 -172.529 -3.36475 85.913 -27.3516 12.1643 -3.45661 82.2757 13.7394 -4.5327 17.0953 -10.3603 8.35388 174.98 21.9427 87.6288 -31.5481 -6.58652 -0.487457 65.9811 -3.73061 -2.287 17.0305 3.2575 6.15856 -0.456542 8.24493 -90.042 10.3883 -0.928588 0.00159553 -1.28235 -0.927608 0.0424633 -23.8201 -0.886137 -0.27757 -3.80747 -0.886144 -0.277584 90.8341 -31.5508 -104.555 43.8617 6.89736 -6.93156 -5.20618 -40.6075 -5.39577 -15.9802 1.64269 -17.422 -87.8959 -42.5026 80.4247 -29.3273 -17.0228 -23.7561 -7.36007 20.3924 -0.010214 12.1665 -2.75263 -24.5851 -12.1896 1.86641 -6.91312 -3.93621 2.08793 1.87098 
28.8465 99.1746 -101.931 -158.052 -79.7037 -162.126 -174.291 -3.21059 82.6465 -24.4096 7.38144 -3.75907 78.6913 11.3152 -2.7462 14.2089 -10.6279 5.86308 175.437 20.1128 86.0526 -43.8958 -8.11961 -2.61787 67.7152 -5.37221 -1.64786 20.2042 2.6215 4.09745 0.0786486 8.2499 -89.5556 10.3718 0.360159 0.849936 -1.29941 0.397215 0.83326 -23.8323 0.0880768 0.918877 -3.81965 0.0880786 0.91888 90.2523 -29.5929 -106.418 46.7347 5.73153 -6.61766 -5.31412 -42.2152 -5.45801 -16.557 1.91867 -18.9373 -87.7926 -44.9888 81.0937 -23.4531 -15.3388 -14.0954 -9.05588 17.7817 -0.015241 8.51383 -1.61003 -20.9662 -13.8212 1.77946 -6.58899 -3.00434 1.91796 -0.262545 
29.3757 99.6087 -104.785 -152.935 -78.92 -157.272 -175.561 -2.20005 81.2821 -22.5814 5.12961 -3.09865 76.1117 8.89629 -2.98052 12.5849 -11.1916 5.24769 174.964 14.6428 84.8543 -53.972 -9.26849 -3.92739 67.617 -5.8797 -3.74114 22.9495 0.7518 6.41593 0.456987 8.15815 -89.3272 10.5496 1.21935 1.22789 -1.12128 1.2722 1.17303 -23.6541 0.793992 1.53754 -3.64142 0.793995 1.53754 90.179 -28.2101 -107.099 48.8684 5.02507 -5.85946 -5.3052 -42.0852 -5.4531 -19.0785 2.40479 -19.9763 -87.7774 -47.7818 81.6553 -21.3905 -19.4821 -2.72465 -7.81979 17.5472 -0.0265988 3.70848 -0.694989 -19.4568 -13.9226 0.771065 -5.54061 -3.04914 0.881905 -2.73913 
29.7276 99.5623 -107.355 -148.297 -79.1668 -153.491 -176.076 0.474316 79.9833 -22.8826 5.01082 -3.19826 74.6999 8.08927 -1.17296 10.7825 -11.788 4.53193 173.491 7.47362 82.6452 -58.445 -12.4114 -4.68122 66.1673 -4.774 -2.01816 22.9781 1.15259 5.03228 0.809923 7.9244 -89.038 11.0067 2.05808 1.71749 -0.663634 2.13167 1.62523 -23.197 1.44689 2.25649 -3.1844 1.44691 2.2565 89.9897 -27.4916 -107.777 50.6992 4.60052 -4.70775 -5.20213 -40.5461 -5.39335 -19.4705 2.41021 -19.6963 -87.1518 -49.1663 82.8577 -19.3757 -16.4274 9.16441 -9.88354 8.00572 0.00523743 7.64701 -0.819646 -13.7925 -14.1205 -0.22121 -5.93726 -3.19292 -0.110161 -4.2332 
29.4375 99.1414 -110.549 -144.177 -79.4995 -150.097 -175.077 4.22701 80.337 -24.9283 5.32836 -4.57865 73.5254 7.02897 -1.97669 11.2241 -11.6081 4.65604 172.126 -0.62679 81.8707 -56.0606 -19.8352 -5.35908 65.7406 -4.62521 -2.33835 24.717 -0.0488702 6.82547 1.0961 7.72633 -88.7304 11.3923 2.77345 2.24845 -0.27745 2.86969 2.12419 -22.8107 1.96979 2.97774 -2.79807 1.96979 2.97775 89.9813 -27.4854 -107.797 52.1978 4.05621 -4.42223 -5.14251 -39.6242 -5.36006 -19.2662 2.51849 -20.5102 -86.5513 -49.383 83.805 -18.2972 -16.8333 17.989 -9.66497 6.59448 -0.0716813 4.83963 -0.432374 -11.5087 -13.196 -0.758628 -6.98042 -4.09045 -0.53406 -5.02835 
29.4375 98.7216 -115.208 -137.88 -78.4552 -144.721 -174.855 8.10624 79.8868 -26.2919 3.25241 -5.12483 71.2398 4.95954 -2.75048 9.52603 -12.4995 4.47742 172.166 -8.57253 81.4823 -47.6142 -29.2866 -7.21408 66.232 -5.15922 -2.42139 28.3694 -1.64327 7.41287 1.39027 7.74068 -88.4616 11.3459 3.48361 2.71589 -0.322897 3.59972 2.55991 -22.8572 2.50688 3.63682 -2.84452 2.50689 3.63682 89.7331 -27.6376 -108.243 52.458 3.46217 -5.81386 -5.22405 -40.8791 -5.40628 -20.503 2.69145 -20.5234 -86.0044 -48.926 84.5651 -19.7509 -17.4667 20.107 -9.39591 8.00252 -0.0177602 3.70111 -0.332496 -11.4241 -12.4717 -1.08108 -7.91704 -2.88859 -0.838733 -4.65554 
29.4916 98.2945 -121.965 -128.979 -76.9672 -136.112 -175.035 12.2418 79.9957 -24.3408 0.980085 -4.95991 66.3042 1.93757 -2.58541 8.04425 -13.0582 4.00136 173.014 -11.056 82.3799 -39.1675 -28.4774 -7.94265 72.4414 -10.185 -3.74783 35.1692 -4.66315 10.3098 1.6351 7.88461 -88.477 11.0548 3.96102 2.64969 -0.612513 4.07376 2.47267 -23.1565 2.98207 3.71739 -3.14386 2.98207 3.71739 90.2741 -26.1201 -107.76 51.3909 2.78918 -9.18073 -5.56583 -45.6836 -5.61432 -21.7812 2.65917 -19.4003 -86.3169 -50.89 84.3894 -20.7293 -17.3697 15.8175 -9.45549 5.88137 -0.0195252 2.82356 -0.421521 -13.9498 -10.8424 -1.16806 -4.87427 -2.27861 -0.978344 -6.19141 
29.4235 97.6374 -130.428 -126.673 -76.4479 -131.3 -175.207 16.6153 83.1818 -21.3125 -0.901154 -3.8042 61.1977 -1.70182 -4.0368 11.7722 -12.469 6.47038 175.403 -9.24226 86.7482 -36.0468 -25.7834 -6.94189 78.9348 -15.6923 -5.37223 33.9716 -3.49161 6.09131 1.56282 8.12504 -88.9632 10.5979 3.58939 1.73646 -1.06902 3.66232 1.57665 -23.623 2.90169 2.73527 -3.61039 2.90169 2.73527 90.0514 -24.7461 -108.831 48.3068 3.17792 -12.6188 -5.68644 -47.2141 -5.69348 -21.0537 3.22451 -22.994 -86.7185 -54.2692 84.3048 -18.1614 -15.7973 6.52999 -9.94252 9.55525 -0.142037 3.25261 -0.679347 -18.3698 -9.48541 -0.449392 -0.845961 -1.27759 -0.492051 -7.00056 
28.9574 97.2941 -138.948 -136.408 -78.4853 -139.201 -174.395 17.8015 85.8703 -16.0242 -3.8447 -4.02893 61.1756 0.048845 -4.96994 21.936 -8.74778 10.5889 176.048 -3.7419 90.5806 -37.7519 -23.1493 -4.9318 82.3047 -16.8601 -3.65465 28.3517 -1.57356 7.17411 1.14963 8.43394 -89.3693 9.99229 2.57784 1.04007 -1.67642 2.62111 0.925529 -24.2234 2.14607 1.76693 -4.21078 2.14608 1.76693 89.7706 -25.4488 -109.122 45.5779 4.0109 -14.4956 -5.52312 -45.1209 -5.58719 -22.9458 3.41212 -22.3895 -87.3774 -54.6893 83.4232 -15.824 -16.1384 -5.55562 -10.0251 8.35831 -0.00647084 6.57124 -1.00517 -17.1137 -8.77156 -0.0272934 0.270599 -0.176472 -0.185748 -6.35921 
28.302 98.0717 -146.076 -160.793 -79.075 -163.13 -173.154 19.8121 86.7905 -23.7729 -4.66044 -3.59734 65.496 3.83283 -1.61098 13.6733 -12.4162 8.1396 175.095 -0.860353 91.0264 -37.3303 -22.1401 -2.92209 78.9575 -14.2116 -4.5304 28.0008 -1.81272 8.75041 0.62766 8.7737 -89.63 9.32294 1.41785 0.627967 -2.34737 1.44411 0.564945 -24.8857 1.16358 1.02509 -4.87306 1.16357 1.02508 89.972 -25.9189 -108.477 45.6333 4.67662 -12.1448 -5.24782 -41.2324 -5.41897 -22.4532 3.36231 -22.5406 -87.9719 -51.8801 82.1011 -16.277 -16.3237 -14.9316 -9.80822 9.45238 -0.0234612 7.65707 -1.2551 -18.2353 -9.16125 0.177761 -1.04099 -0.518817 0.141659 -5.12123 
27.7698 99.2615 -151.518 -179.89 -78.4961 178.441 -173.364 21.0392 88.8516 -39.1215 5.09144 -1.5012 68.1182 5.48236 0.0896416 8.65153 -12.701 4.0121 174.805 -0.448256 92.1409 -32.6632 -20.2598 -1.44191 74.8184 -10.8537 -4.23328 27.3778 -1.59097 8.77306 0.155451 8.91551 -89.9085 9.0426 0.350979 0.156652 -2.6283 0.357532 0.141061 -25.1637 0.287669 0.254894 -5.15101 0.287664 0.254898 90.5673 -27.5538 -106.564 45.7099 5.80675 -7.97016 -5.27173 -41.5924 -5.43343 -20.7546 2.91734 -21.5656 -87.8713 -47.2382 81.4082 -18.7535 -14.5808 -21.0801 -9.98186 9.6309 -0.015138 8.43248 -1.73327 -21.5444 -9.77678 0.60272 -4.91111 -1.35184 0.867167 -0.34274 
27.5557 99.797 -155.992 169.157 -78.0401 167.764 -173.694 17.9028 90.693 -52.1392 6.96732 0.874672 70.2003 7.04929 0.993498 10.5168 -11.9836 4.59001 176.21 1.46125 93.5723 -30.7285 -16.8057 -1.83582 72.2556 -8.37385 -3.32754 23.4558 -0.541742 10.1849 -0.278341 8.82696 -90.1309 9.21947 -0.613697 -0.214697 -2.45136 -0.622546 -0.187491 -24.9871 -0.5208 -0.389212 -4.97445 -0.520804 -0.389218 90.9975 -28.5159 -105.319 46.1393 7.25348 -1.97004 -5.18233 -40.2418 -5.3823 -19.6699 2.68785 -21.1498 -88.4984 -43.5984 79.6697 -23.2231 -17.6853 -26.3444 -8.00036 14.6226 -0.0231836 9.76541 -2.24342 -24.134 -11.5851 1.67829 -6.893 -2.48274 1.95438 1.97316 
27.9664 99.871 -159.645 160.34 -77.107 160.337 -174.167 10.6704 93.7391 -60.2682 11.6389 3.09122 68.1426 5.33737 -0.0754689 9.67336 -12.5239 4.64855 176.675 2.60807 94.797 -28.7378 -14.9946 -1.23462 70.0651 -6.77725 -3.54329 24.2611 -0.596938 9.34256 -0.847513 8.70677 -90.4963 9.45518 -1.91323 -0.839723 -2.21457 -1.94833 -0.754691 -24.7559 -1.57242 -1.37598 -4.74323 -1.57243 -1.37598 91.6988 -28.8511 -103.766 46.4619 8.46136 2.94872 -5.0484 -38.1184 -5.30858 -17.4946 2.0901 -19.3208 -88.578 -41.3809 79.0515 -26.4702 -18.2284 -28.0809 -7.30261 13.3209 -0.182459 12.9516 -2.89912 -24.2092 -13.2738 3.05459 -6.42311 -3.39698 3.22122 3.66553 
28.7447 99.5447 -163.314 162.752 -76.588 163.839 -171.742 1.38013 97.2146 -59.3433 20.1947 3.23911 60.5714 0.350149 -0.0625304 7.96726 -11.8862 2.28669 176.999 4.89168 95.2173 -29.4637 -15.5238 -1.05184 68.2328 -5.49488 -3.06431 22.9223 -0.0405286 9.12767 -1.19832 8.5873 -90.9031 9.67844 -2.79699 -1.57303 -1.99029 -2.86351 -1.44835 -24.5342 -2.19502 -2.34099 -4.52151 -2.19502 -2.34098 91.8092 -28.2224 -103.758 46.273 9.60789 7.22786 -4.86636 -35.042 -5.21736 -15.6361 1.57122 -17.1463 -88.0019 -41.8849 80.1171 -29.4886 -17.4449 -29.2998 -6.59347 19.0224 -0.815303 11.2091 -2.86502 -26.5689 -15.0274 3.902 -3.25378 -4.05922 3.9201 4.26408 
29.8374 99.0108 -167.957 159.437 -77.426 161.727 -168.946 -5.21887 99.1108 -50.4812 22.9168 2.2474 63.6755 2.75684 0.941373 14.3556 -7.77494 1.39359 177.431 9.06854 95.5405 -29.1574 -15.4139 -0.799286 65.5371 -3.61268 -2.79353 22.2705 0.236736 9.01029 -1.51301 8.37415 -91.235 10.0892 -3.57742 -2.15298 -1.5783 -3.66869 -1.99333 -24.1252 -2.76524 -3.12862 -4.11249 -2.76525 -3.12863 91.6894 -29.7811 -103.469 44.957 10.2744 8.41741 -4.68196 -31.6901 -5.13389 -15.3497 1.47647 -16.6862 -87.6221 -41.3121 80.6233 -30.7698 -13.1085 -28.7461 -7.70881 28.0875 -0.0143655 13.5432 -3.69264 -28.284 -14.9001 4.49403 -2.73261 -5.27628 4.43244 6.1171 
